<svg height="512" viewBox="0 0 40 58" width="512"
    xmlns="http://www.w3.org/2000/svg">
    <g id="Page-1" fill="none" fill-rule="evenodd">
        <g id="008---Bot-at-Laptop" fill-rule="nonzero">
            <path id="Rectangle-path" d="m2 1.04h2v11.96h-2z" fill="#a5a5a4"/>
            <path id="Rectangle-path" d="m36 1.04h2v11.96h-2z" fill="#a5a5a4"/>
            <path class="cls-1" d="m35.29 35c2.94-2.86 4.71-7.12 4.71-13.18 0-12.73-8.95-21.82-20-21.82s-20 9.09-20 21.82c0 6.06 1.77 10.32 4.71 13.18z" fill = "#67AECA"/>
            <rect id="Rectangle-path" fill="#547580" height="18" rx="9" width="32" x="4" y="13"/>
            <path id="Shape" d="m23 10h-6c-.5522847 0-1-.44771525-1-1s.4477153-1 1-1h6c.5522847 0 1 .44771525 1 1s-.4477153 1-1 1z" fill="#9fc9d3"/>
            <path id="Shape" d="m21 7h-2c-.5522847 0-1-.44771525-1-1s.4477153-1 1-1h2c.5522847 0 1 .44771525 1 1s-.4477153 1-1 1z" fill="#9fc9d3"/>
            <circle id="Oval" cx="3" cy="2" fill="#3b97d3" r="2"/>
            <circle id="Oval" cx="37" cy="2" fill="#3b97d3" r="2"/>
            <circle id="Oval" cx="11" cy="21" fill="#81ccb8" r="2"/>
            <circle id="Oval" cx="29" cy="21" fill="#81ccb8" r="2"/>
            <path id="Shape" d="m20 28c-1.35546.0583036-2.6818413-.4043376-3.707-1.293-.3573625-.3924894-.3458038-.9958028.02633-1.374316.3721338-.3785133.9751636-.4003241 1.37367-.049684.658334.5075391 1.4769529.7619604 2.307.717.8278281.0431581 1.6437452-.21155 2.3-.718.3991819-.3746902 1.0245848-.361809 1.408.029.3832686.3889397.3805882 1.0143597-.006 1.4-1.0244863.886009-2.348779 1.3471148-3.702 1.289z" fill="#35495e"/>
            <path id="Shape" d="m35 54-15 3-15-3-2.635-16.688c-.09126255-.5778539.0750562-1.1666952.45514569-1.6114153s.93583811-.7007268 1.52085431-.7005847h31.318c.5850162-.0001421 1.1407648.2558646 1.5208543.7005847s.5464082 1.0335614.4551457 1.6114153z" fill="#bdc3c7"/>
            <path id="Shape" d="m5 54h30v3c0 .5522847-.4477153 1-1 1h-28c-.55228475 0-1-.4477153-1-1z" fill="#95a5a5"/>
            <circle id="Oval" cx="20" cy="45" fill="#3b97d3" r="3"/>
        </g>
    </g>
</svg>
